G75*
%MOIN*%
%OFA0B0*%
%FSLAX25Y25*%
%IPPOS*%
%LPD*%
%AMOC8*
5,1,8,0,0,1.08239X$1,22.5*
%
%ADD10C,0.07400*%
%ADD11OC8,0.06800*%
%ADD12C,0.06800*%
%ADD13C,0.08600*%
%ADD14R,0.06737X0.06737*%
%ADD15C,0.06737*%
%ADD16C,0.07300*%
%ADD17OC8,0.08600*%
%ADD18C,0.06000*%
%ADD19OC8,0.06000*%
%ADD20C,0.05800*%
D10*
X0185167Y0016000D03*
X0220167Y0016000D03*
X0220167Y0056000D03*
X0185167Y0056000D03*
D11*
X0275167Y0191000D03*
X0285167Y0191000D03*
X0285167Y0201000D03*
X0285167Y0211000D03*
X0285167Y0221000D03*
X0285167Y0231000D03*
X0285167Y0241000D03*
X0275167Y0241000D03*
X0275167Y0231000D03*
X0275167Y0221000D03*
X0275167Y0211000D03*
X0275167Y0201000D03*
X0275167Y0306000D03*
X0285167Y0306000D03*
X0285167Y0316000D03*
X0275167Y0316000D03*
X0265167Y0316000D03*
X0265167Y0306000D03*
X0255167Y0306000D03*
X0255167Y0316000D03*
X0245167Y0316000D03*
X0245167Y0306000D03*
X0235167Y0306000D03*
X0235167Y0316000D03*
X0225167Y0316000D03*
X0215167Y0316000D03*
X0215167Y0306000D03*
X0225167Y0306000D03*
X0205167Y0306000D03*
X0205167Y0316000D03*
X0195167Y0316000D03*
X0195167Y0306000D03*
X0185167Y0306000D03*
X0185167Y0316000D03*
X0175167Y0316000D03*
X0175167Y0306000D03*
X0165167Y0306000D03*
X0165167Y0316000D03*
X0155167Y0316000D03*
X0155167Y0306000D03*
X0145167Y0306000D03*
X0145167Y0316000D03*
D12*
X0145167Y0289000D02*
X0145167Y0283000D01*
X0155167Y0283000D02*
X0155167Y0289000D01*
X0165167Y0289000D02*
X0165167Y0283000D01*
X0175167Y0283000D02*
X0175167Y0289000D01*
X0185167Y0289000D02*
X0185167Y0283000D01*
X0195167Y0283000D02*
X0195167Y0289000D01*
X0205167Y0289000D02*
X0205167Y0283000D01*
X0215167Y0283000D02*
X0215167Y0289000D01*
X0225167Y0289000D02*
X0225167Y0283000D01*
X0235167Y0283000D02*
X0235167Y0289000D01*
X0245167Y0289000D02*
X0245167Y0283000D01*
X0255167Y0283000D02*
X0255167Y0289000D01*
X0265167Y0289000D02*
X0265167Y0283000D01*
X0275167Y0283000D02*
X0275167Y0289000D01*
X0285167Y0289000D02*
X0285167Y0283000D01*
D13*
X0115567Y0017500D02*
X0107767Y0017500D01*
X0107767Y0064500D02*
X0115567Y0064500D01*
X0155767Y0064500D02*
X0163567Y0064500D01*
X0163767Y0041000D02*
X0171567Y0041000D01*
X0163567Y0017500D02*
X0155767Y0017500D01*
X0252767Y0017500D02*
X0260567Y0017500D01*
X0300767Y0017500D02*
X0308567Y0017500D01*
X0308767Y0041000D02*
X0316567Y0041000D01*
X0308567Y0064500D02*
X0300767Y0064500D01*
X0260567Y0064500D02*
X0252767Y0064500D01*
X0261267Y0106200D02*
X0269067Y0106200D01*
X0269067Y0125900D02*
X0261267Y0125900D01*
X0261267Y0151200D02*
X0269067Y0151200D01*
X0269067Y0170900D02*
X0261267Y0170900D01*
D14*
X0175167Y0101000D03*
X0152667Y0091000D03*
X0155167Y0211000D03*
D15*
X0155167Y0221000D03*
X0155167Y0231000D03*
X0155167Y0241000D03*
X0145167Y0241000D03*
X0145167Y0231000D03*
X0145167Y0221000D03*
X0145167Y0211000D03*
X0175167Y0211000D03*
X0175167Y0201000D03*
X0175167Y0191000D03*
X0175167Y0181000D03*
X0175167Y0171000D03*
X0175167Y0161000D03*
X0175167Y0151000D03*
X0175167Y0141000D03*
X0175167Y0131000D03*
X0175167Y0121000D03*
X0175167Y0111000D03*
X0152667Y0111000D03*
X0152667Y0101000D03*
X0152667Y0121000D03*
X0152667Y0131000D03*
X0152667Y0141000D03*
X0235167Y0141000D03*
X0235167Y0131000D03*
X0235167Y0121000D03*
X0235167Y0111000D03*
X0235167Y0101000D03*
X0235167Y0151000D03*
X0235167Y0161000D03*
X0235167Y0171000D03*
X0235167Y0181000D03*
X0235167Y0191000D03*
X0235167Y0201000D03*
X0235167Y0211000D03*
X0235167Y0221000D03*
X0235167Y0231000D03*
X0235167Y0241000D03*
X0175167Y0241000D03*
X0175167Y0231000D03*
X0175167Y0221000D03*
D16*
X0175167Y0251000D03*
X0235167Y0251000D03*
X0235167Y0091000D03*
X0175167Y0091000D03*
D17*
X0195167Y0101000D03*
X0215167Y0101000D03*
X0205167Y0141000D03*
D18*
X0150167Y0158400D02*
X0150167Y0163600D01*
X0140167Y0163600D02*
X0140167Y0158400D01*
X0120167Y0158400D02*
X0120167Y0163600D01*
X0120167Y0188400D02*
X0120167Y0193600D01*
X0140167Y0193600D02*
X0140167Y0188400D01*
X0150167Y0188400D02*
X0150167Y0193600D01*
D19*
X0205167Y0061000D03*
X0197667Y0056000D03*
X0205167Y0051000D03*
X0205167Y0031000D03*
X0197667Y0026000D03*
X0205167Y0021000D03*
D20*
X0260167Y0251000D03*
M02*
