G75*
%MOIN*%
%OFA0B0*%
%FSLAX25Y25*%
%IPPOS*%
%LPD*%
%AMOC8*
5,1,8,0,0,1.08239X$1,22.5*
%
%ADD10C,0.06600*%
%ADD11OC8,0.06000*%
%ADD12C,0.06000*%
%ADD13C,0.07800*%
%ADD14R,0.05937X0.05937*%
%ADD15C,0.05937*%
%ADD16OC8,0.07800*%
%ADD17C,0.05200*%
%ADD18OC8,0.05200*%
%ADD19C,0.03200*%
%ADD20C,0.05000*%
D10*
X0185167Y0016000D03*
X0220167Y0016000D03*
X0220167Y0056000D03*
X0185167Y0056000D03*
D11*
X0275167Y0191000D03*
X0285167Y0191000D03*
X0285167Y0201000D03*
X0285167Y0211000D03*
X0285167Y0221000D03*
X0285167Y0231000D03*
X0285167Y0241000D03*
X0275167Y0241000D03*
X0275167Y0231000D03*
X0275167Y0221000D03*
X0275167Y0211000D03*
X0275167Y0201000D03*
X0275167Y0306000D03*
X0285167Y0306000D03*
X0285167Y0316000D03*
X0275167Y0316000D03*
X0265167Y0316000D03*
X0265167Y0306000D03*
X0255167Y0306000D03*
X0255167Y0316000D03*
X0245167Y0316000D03*
X0245167Y0306000D03*
X0235167Y0306000D03*
X0235167Y0316000D03*
X0225167Y0316000D03*
X0215167Y0316000D03*
X0215167Y0306000D03*
X0225167Y0306000D03*
X0205167Y0306000D03*
X0205167Y0316000D03*
X0195167Y0316000D03*
X0195167Y0306000D03*
X0185167Y0306000D03*
X0185167Y0316000D03*
X0175167Y0316000D03*
X0175167Y0306000D03*
X0165167Y0306000D03*
X0165167Y0316000D03*
X0155167Y0316000D03*
X0155167Y0306000D03*
X0145167Y0306000D03*
X0145167Y0316000D03*
D12*
X0145167Y0289000D02*
X0145167Y0283000D01*
X0155167Y0283000D02*
X0155167Y0289000D01*
X0165167Y0289000D02*
X0165167Y0283000D01*
X0175167Y0283000D02*
X0175167Y0289000D01*
X0185167Y0289000D02*
X0185167Y0283000D01*
X0195167Y0283000D02*
X0195167Y0289000D01*
X0205167Y0289000D02*
X0205167Y0283000D01*
X0215167Y0283000D02*
X0215167Y0289000D01*
X0225167Y0289000D02*
X0225167Y0283000D01*
X0235167Y0283000D02*
X0235167Y0289000D01*
X0245167Y0289000D02*
X0245167Y0283000D01*
X0255167Y0283000D02*
X0255167Y0289000D01*
X0265167Y0289000D02*
X0265167Y0283000D01*
X0275167Y0283000D02*
X0275167Y0289000D01*
X0285167Y0289000D02*
X0285167Y0283000D01*
D13*
X0269067Y0170900D02*
X0261267Y0170900D01*
X0261267Y0151200D02*
X0269067Y0151200D01*
X0269067Y0125900D02*
X0261267Y0125900D01*
X0261267Y0106200D02*
X0269067Y0106200D01*
X0260567Y0064500D02*
X0252767Y0064500D01*
X0252767Y0017500D02*
X0260567Y0017500D01*
X0300767Y0017500D02*
X0308567Y0017500D01*
X0308767Y0041000D02*
X0316567Y0041000D01*
X0308567Y0064500D02*
X0300767Y0064500D01*
X0171567Y0041000D02*
X0163767Y0041000D01*
X0163567Y0017500D02*
X0155767Y0017500D01*
X0115567Y0017500D02*
X0107767Y0017500D01*
X0107767Y0064500D02*
X0115567Y0064500D01*
X0155767Y0064500D02*
X0163567Y0064500D01*
D14*
X0152667Y0091000D03*
X0175167Y0101000D03*
X0155167Y0211000D03*
D15*
X0155167Y0221000D03*
X0155167Y0231000D03*
X0155167Y0241000D03*
X0145167Y0241000D03*
X0145167Y0231000D03*
X0145167Y0221000D03*
X0145167Y0211000D03*
X0175167Y0211000D03*
X0175167Y0201000D03*
X0175167Y0191000D03*
X0175167Y0181000D03*
X0175167Y0171000D03*
X0175167Y0161000D03*
X0175167Y0151000D03*
X0175167Y0141000D03*
X0175167Y0131000D03*
X0175167Y0121000D03*
X0175167Y0111000D03*
X0152667Y0111000D03*
X0152667Y0101000D03*
X0152667Y0121000D03*
X0152667Y0131000D03*
X0152667Y0141000D03*
X0235167Y0141000D03*
X0235167Y0131000D03*
X0235167Y0121000D03*
X0235167Y0111000D03*
X0235167Y0101000D03*
X0235167Y0151000D03*
X0235167Y0161000D03*
X0235167Y0171000D03*
X0235167Y0181000D03*
X0235167Y0191000D03*
X0235167Y0201000D03*
X0235167Y0211000D03*
X0235167Y0221000D03*
X0235167Y0231000D03*
X0235167Y0241000D03*
X0175167Y0241000D03*
X0175167Y0231000D03*
X0175167Y0221000D03*
D16*
X0205167Y0141000D03*
X0215167Y0101000D03*
X0195167Y0101000D03*
D17*
X0150167Y0158400D02*
X0150167Y0163600D01*
X0140167Y0163600D02*
X0140167Y0158400D01*
X0120167Y0158400D02*
X0120167Y0163600D01*
X0120167Y0188400D02*
X0120167Y0193600D01*
X0140167Y0193600D02*
X0140167Y0188400D01*
X0150167Y0188400D02*
X0150167Y0193600D01*
D18*
X0205167Y0061000D03*
X0197667Y0056000D03*
X0205167Y0051000D03*
X0205167Y0031000D03*
X0197667Y0026000D03*
X0205167Y0021000D03*
D19*
X0135167Y0016000D02*
X0095167Y0056000D01*
X0095167Y0066000D01*
X0100167Y0071000D01*
X0140167Y0071000D01*
X0150167Y0081000D01*
X0130167Y0101000D01*
X0130167Y0146000D01*
X0105167Y0146000D01*
X0095167Y0156000D01*
X0095167Y0206000D01*
X0110167Y0221000D01*
X0110167Y0281000D01*
X0145167Y0316000D01*
X0145167Y0286000D02*
X0120167Y0261000D01*
X0120167Y0221000D01*
X0100167Y0201000D01*
X0100167Y0161000D01*
X0110167Y0151000D01*
X0120167Y0151000D01*
X0125167Y0156000D01*
X0125167Y0166000D01*
X0120167Y0171000D01*
X0120167Y0191000D01*
X0130167Y0191000D02*
X0130167Y0146000D01*
X0140167Y0141000D02*
X0140167Y0161000D01*
X0150167Y0161000D02*
X0160167Y0161000D01*
X0160167Y0131000D01*
X0152667Y0131000D01*
X0152667Y0121000D02*
X0165167Y0121000D01*
X0175167Y0131000D01*
X0165167Y0141000D01*
X0165167Y0166000D01*
X0155167Y0176000D01*
X0155167Y0211000D01*
X0155167Y0221000D02*
X0165167Y0221000D01*
X0165167Y0201000D01*
X0175167Y0201000D01*
X0175167Y0211000D02*
X0190167Y0211000D01*
X0190167Y0261000D01*
X0145167Y0261000D01*
X0130167Y0246000D01*
X0130167Y0221000D01*
X0145167Y0221000D01*
X0145167Y0231000D02*
X0135167Y0231000D01*
X0135167Y0241000D01*
X0150167Y0256000D01*
X0185167Y0256000D01*
X0185167Y0231000D01*
X0175167Y0231000D01*
X0175167Y0241000D02*
X0155167Y0241000D01*
X0145167Y0211000D02*
X0125167Y0211000D01*
X0110167Y0196000D01*
X0110167Y0161000D01*
X0120167Y0161000D01*
X0140167Y0141000D02*
X0152667Y0141000D01*
X0175167Y0141000D02*
X0185167Y0141000D01*
X0210167Y0166000D01*
X0210167Y0236000D01*
X0235167Y0261000D01*
X0285167Y0261000D01*
X0300167Y0246000D01*
X0300167Y0231000D01*
X0290167Y0221000D01*
X0285167Y0221000D01*
X0285167Y0211000D02*
X0290167Y0211000D01*
X0305167Y0226000D01*
X0305167Y0251000D01*
X0290167Y0266000D01*
X0230167Y0266000D01*
X0205167Y0241000D01*
X0205167Y0171000D01*
X0185167Y0151000D01*
X0175167Y0151000D01*
X0175167Y0161000D02*
X0185167Y0161000D01*
X0200167Y0176000D01*
X0200167Y0246000D01*
X0225167Y0271000D01*
X0295167Y0271000D01*
X0310167Y0256000D01*
X0310167Y0221000D01*
X0290167Y0201000D01*
X0285167Y0201000D01*
X0285167Y0191000D02*
X0290167Y0191000D01*
X0315167Y0216000D01*
X0315167Y0261000D01*
X0300167Y0276000D01*
X0220167Y0276000D01*
X0195167Y0251000D01*
X0195167Y0181000D01*
X0185167Y0171000D01*
X0175167Y0171000D01*
X0150167Y0191000D02*
X0130167Y0191000D01*
X0140167Y0191000D02*
X0150167Y0191000D01*
X0205167Y0151000D02*
X0205167Y0141000D01*
X0205167Y0151000D02*
X0215167Y0161000D01*
X0215167Y0201000D01*
X0235167Y0221000D01*
X0235167Y0211000D02*
X0265167Y0241000D01*
X0275167Y0241000D01*
X0275167Y0231000D02*
X0265167Y0231000D01*
X0235167Y0201000D01*
X0235167Y0191000D02*
X0265167Y0221000D01*
X0275167Y0221000D01*
X0275167Y0211000D02*
X0265167Y0211000D01*
X0235167Y0181000D01*
X0240167Y0176000D02*
X0265167Y0201000D01*
X0275167Y0201000D01*
X0275167Y0191000D02*
X0265167Y0191000D01*
X0245167Y0171000D01*
X0245167Y0161000D01*
X0235167Y0161000D01*
X0235167Y0171000D02*
X0240167Y0171000D01*
X0240167Y0176000D01*
X0265167Y0170900D02*
X0325167Y0110900D01*
X0325167Y0036000D01*
X0320167Y0031000D01*
X0275167Y0031000D01*
X0256667Y0049500D01*
X0256667Y0064500D01*
X0265167Y0076000D02*
X0265167Y0106200D01*
X0250167Y0110900D02*
X0265167Y0125900D01*
X0250167Y0110900D02*
X0250167Y0081000D01*
X0235167Y0081000D01*
X0230167Y0076000D01*
X0155167Y0076000D01*
X0143667Y0064500D01*
X0111667Y0064500D01*
X0150167Y0081000D02*
X0205167Y0081000D01*
X0215167Y0091000D01*
X0215167Y0101000D01*
X0195167Y0101000D02*
X0195167Y0111000D01*
X0175167Y0131000D01*
X0175167Y0111000D02*
X0152667Y0111000D01*
X0152667Y0101000D02*
X0175167Y0101000D01*
X0176667Y0064500D02*
X0159667Y0064500D01*
X0176667Y0064500D02*
X0185167Y0056000D01*
X0190167Y0061000D01*
X0205167Y0061000D01*
X0210167Y0056000D02*
X0220167Y0066000D01*
X0230167Y0066000D01*
X0240167Y0076000D01*
X0265167Y0076000D01*
X0245167Y0071000D02*
X0298167Y0071000D01*
X0304667Y0064500D01*
X0312667Y0041000D02*
X0315167Y0041000D01*
X0315167Y0101200D01*
X0265167Y0151200D01*
X0325167Y0121000D02*
X0330167Y0116000D01*
X0330167Y0031000D01*
X0325167Y0026000D01*
X0210167Y0026000D01*
X0205167Y0021000D01*
X0205167Y0031000D02*
X0220167Y0031000D01*
X0220167Y0056000D01*
X0230167Y0056000D01*
X0245167Y0071000D01*
X0210167Y0056000D02*
X0210167Y0046000D01*
X0205167Y0041000D01*
X0167667Y0041000D01*
X0159667Y0017500D02*
X0158167Y0016000D01*
X0135167Y0016000D01*
X0159667Y0017500D02*
X0183667Y0017500D01*
X0185167Y0016000D01*
X0220167Y0016000D01*
X0225167Y0011000D01*
X0298167Y0011000D01*
X0304667Y0017500D01*
X0325167Y0121000D02*
X0325167Y0261000D01*
X0280167Y0306000D01*
X0275167Y0306000D01*
X0285167Y0251000D02*
X0260167Y0251000D01*
X0285167Y0251000D02*
X0295167Y0241000D01*
X0295167Y0236000D01*
X0290167Y0231000D01*
X0285167Y0231000D01*
D20*
X0260167Y0251000D03*
M02*
