G75*
%MOIN*%
%OFA0B0*%
%FSLAX25Y25*%
%IPPOS*%
%LPD*%
%AMOC8*
5,1,8,0,0,1.08239X$1,22.5*
%
%ADD10C,0.00000*%
%ADD11C,0.00600*%
%ADD12C,0.00500*%
%ADD13C,0.00400*%
%ADD14C,0.00300*%
D10*
X0060167Y0001000D02*
X0060167Y0329701D01*
X0335088Y0329701D01*
X0335088Y0001000D01*
X0060167Y0001000D01*
X0171917Y0091000D02*
X0171919Y0091113D01*
X0171925Y0091227D01*
X0171935Y0091340D01*
X0171949Y0091452D01*
X0171966Y0091564D01*
X0171988Y0091676D01*
X0172014Y0091786D01*
X0172043Y0091896D01*
X0172076Y0092004D01*
X0172113Y0092112D01*
X0172154Y0092217D01*
X0172198Y0092322D01*
X0172246Y0092425D01*
X0172297Y0092526D01*
X0172352Y0092625D01*
X0172411Y0092722D01*
X0172473Y0092817D01*
X0172538Y0092910D01*
X0172606Y0093001D01*
X0172677Y0093089D01*
X0172752Y0093175D01*
X0172829Y0093258D01*
X0172909Y0093338D01*
X0172992Y0093415D01*
X0173078Y0093490D01*
X0173166Y0093561D01*
X0173257Y0093629D01*
X0173350Y0093694D01*
X0173445Y0093756D01*
X0173542Y0093815D01*
X0173641Y0093870D01*
X0173742Y0093921D01*
X0173845Y0093969D01*
X0173950Y0094013D01*
X0174055Y0094054D01*
X0174163Y0094091D01*
X0174271Y0094124D01*
X0174381Y0094153D01*
X0174491Y0094179D01*
X0174603Y0094201D01*
X0174715Y0094218D01*
X0174827Y0094232D01*
X0174940Y0094242D01*
X0175054Y0094248D01*
X0175167Y0094250D01*
X0175280Y0094248D01*
X0175394Y0094242D01*
X0175507Y0094232D01*
X0175619Y0094218D01*
X0175731Y0094201D01*
X0175843Y0094179D01*
X0175953Y0094153D01*
X0176063Y0094124D01*
X0176171Y0094091D01*
X0176279Y0094054D01*
X0176384Y0094013D01*
X0176489Y0093969D01*
X0176592Y0093921D01*
X0176693Y0093870D01*
X0176792Y0093815D01*
X0176889Y0093756D01*
X0176984Y0093694D01*
X0177077Y0093629D01*
X0177168Y0093561D01*
X0177256Y0093490D01*
X0177342Y0093415D01*
X0177425Y0093338D01*
X0177505Y0093258D01*
X0177582Y0093175D01*
X0177657Y0093089D01*
X0177728Y0093001D01*
X0177796Y0092910D01*
X0177861Y0092817D01*
X0177923Y0092722D01*
X0177982Y0092625D01*
X0178037Y0092526D01*
X0178088Y0092425D01*
X0178136Y0092322D01*
X0178180Y0092217D01*
X0178221Y0092112D01*
X0178258Y0092004D01*
X0178291Y0091896D01*
X0178320Y0091786D01*
X0178346Y0091676D01*
X0178368Y0091564D01*
X0178385Y0091452D01*
X0178399Y0091340D01*
X0178409Y0091227D01*
X0178415Y0091113D01*
X0178417Y0091000D01*
X0178415Y0090887D01*
X0178409Y0090773D01*
X0178399Y0090660D01*
X0178385Y0090548D01*
X0178368Y0090436D01*
X0178346Y0090324D01*
X0178320Y0090214D01*
X0178291Y0090104D01*
X0178258Y0089996D01*
X0178221Y0089888D01*
X0178180Y0089783D01*
X0178136Y0089678D01*
X0178088Y0089575D01*
X0178037Y0089474D01*
X0177982Y0089375D01*
X0177923Y0089278D01*
X0177861Y0089183D01*
X0177796Y0089090D01*
X0177728Y0088999D01*
X0177657Y0088911D01*
X0177582Y0088825D01*
X0177505Y0088742D01*
X0177425Y0088662D01*
X0177342Y0088585D01*
X0177256Y0088510D01*
X0177168Y0088439D01*
X0177077Y0088371D01*
X0176984Y0088306D01*
X0176889Y0088244D01*
X0176792Y0088185D01*
X0176693Y0088130D01*
X0176592Y0088079D01*
X0176489Y0088031D01*
X0176384Y0087987D01*
X0176279Y0087946D01*
X0176171Y0087909D01*
X0176063Y0087876D01*
X0175953Y0087847D01*
X0175843Y0087821D01*
X0175731Y0087799D01*
X0175619Y0087782D01*
X0175507Y0087768D01*
X0175394Y0087758D01*
X0175280Y0087752D01*
X0175167Y0087750D01*
X0175054Y0087752D01*
X0174940Y0087758D01*
X0174827Y0087768D01*
X0174715Y0087782D01*
X0174603Y0087799D01*
X0174491Y0087821D01*
X0174381Y0087847D01*
X0174271Y0087876D01*
X0174163Y0087909D01*
X0174055Y0087946D01*
X0173950Y0087987D01*
X0173845Y0088031D01*
X0173742Y0088079D01*
X0173641Y0088130D01*
X0173542Y0088185D01*
X0173445Y0088244D01*
X0173350Y0088306D01*
X0173257Y0088371D01*
X0173166Y0088439D01*
X0173078Y0088510D01*
X0172992Y0088585D01*
X0172909Y0088662D01*
X0172829Y0088742D01*
X0172752Y0088825D01*
X0172677Y0088911D01*
X0172606Y0088999D01*
X0172538Y0089090D01*
X0172473Y0089183D01*
X0172411Y0089278D01*
X0172352Y0089375D01*
X0172297Y0089474D01*
X0172246Y0089575D01*
X0172198Y0089678D01*
X0172154Y0089783D01*
X0172113Y0089888D01*
X0172076Y0089996D01*
X0172043Y0090104D01*
X0172014Y0090214D01*
X0171988Y0090324D01*
X0171966Y0090436D01*
X0171949Y0090548D01*
X0171935Y0090660D01*
X0171925Y0090773D01*
X0171919Y0090887D01*
X0171917Y0091000D01*
X0231917Y0091000D02*
X0231919Y0091113D01*
X0231925Y0091227D01*
X0231935Y0091340D01*
X0231949Y0091452D01*
X0231966Y0091564D01*
X0231988Y0091676D01*
X0232014Y0091786D01*
X0232043Y0091896D01*
X0232076Y0092004D01*
X0232113Y0092112D01*
X0232154Y0092217D01*
X0232198Y0092322D01*
X0232246Y0092425D01*
X0232297Y0092526D01*
X0232352Y0092625D01*
X0232411Y0092722D01*
X0232473Y0092817D01*
X0232538Y0092910D01*
X0232606Y0093001D01*
X0232677Y0093089D01*
X0232752Y0093175D01*
X0232829Y0093258D01*
X0232909Y0093338D01*
X0232992Y0093415D01*
X0233078Y0093490D01*
X0233166Y0093561D01*
X0233257Y0093629D01*
X0233350Y0093694D01*
X0233445Y0093756D01*
X0233542Y0093815D01*
X0233641Y0093870D01*
X0233742Y0093921D01*
X0233845Y0093969D01*
X0233950Y0094013D01*
X0234055Y0094054D01*
X0234163Y0094091D01*
X0234271Y0094124D01*
X0234381Y0094153D01*
X0234491Y0094179D01*
X0234603Y0094201D01*
X0234715Y0094218D01*
X0234827Y0094232D01*
X0234940Y0094242D01*
X0235054Y0094248D01*
X0235167Y0094250D01*
X0235280Y0094248D01*
X0235394Y0094242D01*
X0235507Y0094232D01*
X0235619Y0094218D01*
X0235731Y0094201D01*
X0235843Y0094179D01*
X0235953Y0094153D01*
X0236063Y0094124D01*
X0236171Y0094091D01*
X0236279Y0094054D01*
X0236384Y0094013D01*
X0236489Y0093969D01*
X0236592Y0093921D01*
X0236693Y0093870D01*
X0236792Y0093815D01*
X0236889Y0093756D01*
X0236984Y0093694D01*
X0237077Y0093629D01*
X0237168Y0093561D01*
X0237256Y0093490D01*
X0237342Y0093415D01*
X0237425Y0093338D01*
X0237505Y0093258D01*
X0237582Y0093175D01*
X0237657Y0093089D01*
X0237728Y0093001D01*
X0237796Y0092910D01*
X0237861Y0092817D01*
X0237923Y0092722D01*
X0237982Y0092625D01*
X0238037Y0092526D01*
X0238088Y0092425D01*
X0238136Y0092322D01*
X0238180Y0092217D01*
X0238221Y0092112D01*
X0238258Y0092004D01*
X0238291Y0091896D01*
X0238320Y0091786D01*
X0238346Y0091676D01*
X0238368Y0091564D01*
X0238385Y0091452D01*
X0238399Y0091340D01*
X0238409Y0091227D01*
X0238415Y0091113D01*
X0238417Y0091000D01*
X0238415Y0090887D01*
X0238409Y0090773D01*
X0238399Y0090660D01*
X0238385Y0090548D01*
X0238368Y0090436D01*
X0238346Y0090324D01*
X0238320Y0090214D01*
X0238291Y0090104D01*
X0238258Y0089996D01*
X0238221Y0089888D01*
X0238180Y0089783D01*
X0238136Y0089678D01*
X0238088Y0089575D01*
X0238037Y0089474D01*
X0237982Y0089375D01*
X0237923Y0089278D01*
X0237861Y0089183D01*
X0237796Y0089090D01*
X0237728Y0088999D01*
X0237657Y0088911D01*
X0237582Y0088825D01*
X0237505Y0088742D01*
X0237425Y0088662D01*
X0237342Y0088585D01*
X0237256Y0088510D01*
X0237168Y0088439D01*
X0237077Y0088371D01*
X0236984Y0088306D01*
X0236889Y0088244D01*
X0236792Y0088185D01*
X0236693Y0088130D01*
X0236592Y0088079D01*
X0236489Y0088031D01*
X0236384Y0087987D01*
X0236279Y0087946D01*
X0236171Y0087909D01*
X0236063Y0087876D01*
X0235953Y0087847D01*
X0235843Y0087821D01*
X0235731Y0087799D01*
X0235619Y0087782D01*
X0235507Y0087768D01*
X0235394Y0087758D01*
X0235280Y0087752D01*
X0235167Y0087750D01*
X0235054Y0087752D01*
X0234940Y0087758D01*
X0234827Y0087768D01*
X0234715Y0087782D01*
X0234603Y0087799D01*
X0234491Y0087821D01*
X0234381Y0087847D01*
X0234271Y0087876D01*
X0234163Y0087909D01*
X0234055Y0087946D01*
X0233950Y0087987D01*
X0233845Y0088031D01*
X0233742Y0088079D01*
X0233641Y0088130D01*
X0233542Y0088185D01*
X0233445Y0088244D01*
X0233350Y0088306D01*
X0233257Y0088371D01*
X0233166Y0088439D01*
X0233078Y0088510D01*
X0232992Y0088585D01*
X0232909Y0088662D01*
X0232829Y0088742D01*
X0232752Y0088825D01*
X0232677Y0088911D01*
X0232606Y0088999D01*
X0232538Y0089090D01*
X0232473Y0089183D01*
X0232411Y0089278D01*
X0232352Y0089375D01*
X0232297Y0089474D01*
X0232246Y0089575D01*
X0232198Y0089678D01*
X0232154Y0089783D01*
X0232113Y0089888D01*
X0232076Y0089996D01*
X0232043Y0090104D01*
X0232014Y0090214D01*
X0231988Y0090324D01*
X0231966Y0090436D01*
X0231949Y0090548D01*
X0231935Y0090660D01*
X0231925Y0090773D01*
X0231919Y0090887D01*
X0231917Y0091000D01*
X0231917Y0251000D02*
X0231919Y0251113D01*
X0231925Y0251227D01*
X0231935Y0251340D01*
X0231949Y0251452D01*
X0231966Y0251564D01*
X0231988Y0251676D01*
X0232014Y0251786D01*
X0232043Y0251896D01*
X0232076Y0252004D01*
X0232113Y0252112D01*
X0232154Y0252217D01*
X0232198Y0252322D01*
X0232246Y0252425D01*
X0232297Y0252526D01*
X0232352Y0252625D01*
X0232411Y0252722D01*
X0232473Y0252817D01*
X0232538Y0252910D01*
X0232606Y0253001D01*
X0232677Y0253089D01*
X0232752Y0253175D01*
X0232829Y0253258D01*
X0232909Y0253338D01*
X0232992Y0253415D01*
X0233078Y0253490D01*
X0233166Y0253561D01*
X0233257Y0253629D01*
X0233350Y0253694D01*
X0233445Y0253756D01*
X0233542Y0253815D01*
X0233641Y0253870D01*
X0233742Y0253921D01*
X0233845Y0253969D01*
X0233950Y0254013D01*
X0234055Y0254054D01*
X0234163Y0254091D01*
X0234271Y0254124D01*
X0234381Y0254153D01*
X0234491Y0254179D01*
X0234603Y0254201D01*
X0234715Y0254218D01*
X0234827Y0254232D01*
X0234940Y0254242D01*
X0235054Y0254248D01*
X0235167Y0254250D01*
X0235280Y0254248D01*
X0235394Y0254242D01*
X0235507Y0254232D01*
X0235619Y0254218D01*
X0235731Y0254201D01*
X0235843Y0254179D01*
X0235953Y0254153D01*
X0236063Y0254124D01*
X0236171Y0254091D01*
X0236279Y0254054D01*
X0236384Y0254013D01*
X0236489Y0253969D01*
X0236592Y0253921D01*
X0236693Y0253870D01*
X0236792Y0253815D01*
X0236889Y0253756D01*
X0236984Y0253694D01*
X0237077Y0253629D01*
X0237168Y0253561D01*
X0237256Y0253490D01*
X0237342Y0253415D01*
X0237425Y0253338D01*
X0237505Y0253258D01*
X0237582Y0253175D01*
X0237657Y0253089D01*
X0237728Y0253001D01*
X0237796Y0252910D01*
X0237861Y0252817D01*
X0237923Y0252722D01*
X0237982Y0252625D01*
X0238037Y0252526D01*
X0238088Y0252425D01*
X0238136Y0252322D01*
X0238180Y0252217D01*
X0238221Y0252112D01*
X0238258Y0252004D01*
X0238291Y0251896D01*
X0238320Y0251786D01*
X0238346Y0251676D01*
X0238368Y0251564D01*
X0238385Y0251452D01*
X0238399Y0251340D01*
X0238409Y0251227D01*
X0238415Y0251113D01*
X0238417Y0251000D01*
X0238415Y0250887D01*
X0238409Y0250773D01*
X0238399Y0250660D01*
X0238385Y0250548D01*
X0238368Y0250436D01*
X0238346Y0250324D01*
X0238320Y0250214D01*
X0238291Y0250104D01*
X0238258Y0249996D01*
X0238221Y0249888D01*
X0238180Y0249783D01*
X0238136Y0249678D01*
X0238088Y0249575D01*
X0238037Y0249474D01*
X0237982Y0249375D01*
X0237923Y0249278D01*
X0237861Y0249183D01*
X0237796Y0249090D01*
X0237728Y0248999D01*
X0237657Y0248911D01*
X0237582Y0248825D01*
X0237505Y0248742D01*
X0237425Y0248662D01*
X0237342Y0248585D01*
X0237256Y0248510D01*
X0237168Y0248439D01*
X0237077Y0248371D01*
X0236984Y0248306D01*
X0236889Y0248244D01*
X0236792Y0248185D01*
X0236693Y0248130D01*
X0236592Y0248079D01*
X0236489Y0248031D01*
X0236384Y0247987D01*
X0236279Y0247946D01*
X0236171Y0247909D01*
X0236063Y0247876D01*
X0235953Y0247847D01*
X0235843Y0247821D01*
X0235731Y0247799D01*
X0235619Y0247782D01*
X0235507Y0247768D01*
X0235394Y0247758D01*
X0235280Y0247752D01*
X0235167Y0247750D01*
X0235054Y0247752D01*
X0234940Y0247758D01*
X0234827Y0247768D01*
X0234715Y0247782D01*
X0234603Y0247799D01*
X0234491Y0247821D01*
X0234381Y0247847D01*
X0234271Y0247876D01*
X0234163Y0247909D01*
X0234055Y0247946D01*
X0233950Y0247987D01*
X0233845Y0248031D01*
X0233742Y0248079D01*
X0233641Y0248130D01*
X0233542Y0248185D01*
X0233445Y0248244D01*
X0233350Y0248306D01*
X0233257Y0248371D01*
X0233166Y0248439D01*
X0233078Y0248510D01*
X0232992Y0248585D01*
X0232909Y0248662D01*
X0232829Y0248742D01*
X0232752Y0248825D01*
X0232677Y0248911D01*
X0232606Y0248999D01*
X0232538Y0249090D01*
X0232473Y0249183D01*
X0232411Y0249278D01*
X0232352Y0249375D01*
X0232297Y0249474D01*
X0232246Y0249575D01*
X0232198Y0249678D01*
X0232154Y0249783D01*
X0232113Y0249888D01*
X0232076Y0249996D01*
X0232043Y0250104D01*
X0232014Y0250214D01*
X0231988Y0250324D01*
X0231966Y0250436D01*
X0231949Y0250548D01*
X0231935Y0250660D01*
X0231925Y0250773D01*
X0231919Y0250887D01*
X0231917Y0251000D01*
X0171917Y0251000D02*
X0171919Y0251113D01*
X0171925Y0251227D01*
X0171935Y0251340D01*
X0171949Y0251452D01*
X0171966Y0251564D01*
X0171988Y0251676D01*
X0172014Y0251786D01*
X0172043Y0251896D01*
X0172076Y0252004D01*
X0172113Y0252112D01*
X0172154Y0252217D01*
X0172198Y0252322D01*
X0172246Y0252425D01*
X0172297Y0252526D01*
X0172352Y0252625D01*
X0172411Y0252722D01*
X0172473Y0252817D01*
X0172538Y0252910D01*
X0172606Y0253001D01*
X0172677Y0253089D01*
X0172752Y0253175D01*
X0172829Y0253258D01*
X0172909Y0253338D01*
X0172992Y0253415D01*
X0173078Y0253490D01*
X0173166Y0253561D01*
X0173257Y0253629D01*
X0173350Y0253694D01*
X0173445Y0253756D01*
X0173542Y0253815D01*
X0173641Y0253870D01*
X0173742Y0253921D01*
X0173845Y0253969D01*
X0173950Y0254013D01*
X0174055Y0254054D01*
X0174163Y0254091D01*
X0174271Y0254124D01*
X0174381Y0254153D01*
X0174491Y0254179D01*
X0174603Y0254201D01*
X0174715Y0254218D01*
X0174827Y0254232D01*
X0174940Y0254242D01*
X0175054Y0254248D01*
X0175167Y0254250D01*
X0175280Y0254248D01*
X0175394Y0254242D01*
X0175507Y0254232D01*
X0175619Y0254218D01*
X0175731Y0254201D01*
X0175843Y0254179D01*
X0175953Y0254153D01*
X0176063Y0254124D01*
X0176171Y0254091D01*
X0176279Y0254054D01*
X0176384Y0254013D01*
X0176489Y0253969D01*
X0176592Y0253921D01*
X0176693Y0253870D01*
X0176792Y0253815D01*
X0176889Y0253756D01*
X0176984Y0253694D01*
X0177077Y0253629D01*
X0177168Y0253561D01*
X0177256Y0253490D01*
X0177342Y0253415D01*
X0177425Y0253338D01*
X0177505Y0253258D01*
X0177582Y0253175D01*
X0177657Y0253089D01*
X0177728Y0253001D01*
X0177796Y0252910D01*
X0177861Y0252817D01*
X0177923Y0252722D01*
X0177982Y0252625D01*
X0178037Y0252526D01*
X0178088Y0252425D01*
X0178136Y0252322D01*
X0178180Y0252217D01*
X0178221Y0252112D01*
X0178258Y0252004D01*
X0178291Y0251896D01*
X0178320Y0251786D01*
X0178346Y0251676D01*
X0178368Y0251564D01*
X0178385Y0251452D01*
X0178399Y0251340D01*
X0178409Y0251227D01*
X0178415Y0251113D01*
X0178417Y0251000D01*
X0178415Y0250887D01*
X0178409Y0250773D01*
X0178399Y0250660D01*
X0178385Y0250548D01*
X0178368Y0250436D01*
X0178346Y0250324D01*
X0178320Y0250214D01*
X0178291Y0250104D01*
X0178258Y0249996D01*
X0178221Y0249888D01*
X0178180Y0249783D01*
X0178136Y0249678D01*
X0178088Y0249575D01*
X0178037Y0249474D01*
X0177982Y0249375D01*
X0177923Y0249278D01*
X0177861Y0249183D01*
X0177796Y0249090D01*
X0177728Y0248999D01*
X0177657Y0248911D01*
X0177582Y0248825D01*
X0177505Y0248742D01*
X0177425Y0248662D01*
X0177342Y0248585D01*
X0177256Y0248510D01*
X0177168Y0248439D01*
X0177077Y0248371D01*
X0176984Y0248306D01*
X0176889Y0248244D01*
X0176792Y0248185D01*
X0176693Y0248130D01*
X0176592Y0248079D01*
X0176489Y0248031D01*
X0176384Y0247987D01*
X0176279Y0247946D01*
X0176171Y0247909D01*
X0176063Y0247876D01*
X0175953Y0247847D01*
X0175843Y0247821D01*
X0175731Y0247799D01*
X0175619Y0247782D01*
X0175507Y0247768D01*
X0175394Y0247758D01*
X0175280Y0247752D01*
X0175167Y0247750D01*
X0175054Y0247752D01*
X0174940Y0247758D01*
X0174827Y0247768D01*
X0174715Y0247782D01*
X0174603Y0247799D01*
X0174491Y0247821D01*
X0174381Y0247847D01*
X0174271Y0247876D01*
X0174163Y0247909D01*
X0174055Y0247946D01*
X0173950Y0247987D01*
X0173845Y0248031D01*
X0173742Y0248079D01*
X0173641Y0248130D01*
X0173542Y0248185D01*
X0173445Y0248244D01*
X0173350Y0248306D01*
X0173257Y0248371D01*
X0173166Y0248439D01*
X0173078Y0248510D01*
X0172992Y0248585D01*
X0172909Y0248662D01*
X0172829Y0248742D01*
X0172752Y0248825D01*
X0172677Y0248911D01*
X0172606Y0248999D01*
X0172538Y0249090D01*
X0172473Y0249183D01*
X0172411Y0249278D01*
X0172352Y0249375D01*
X0172297Y0249474D01*
X0172246Y0249575D01*
X0172198Y0249678D01*
X0172154Y0249783D01*
X0172113Y0249888D01*
X0172076Y0249996D01*
X0172043Y0250104D01*
X0172014Y0250214D01*
X0171988Y0250324D01*
X0171966Y0250436D01*
X0171949Y0250548D01*
X0171935Y0250660D01*
X0171925Y0250773D01*
X0171919Y0250887D01*
X0171917Y0251000D01*
D11*
X0201967Y0247725D02*
X0201967Y0244523D01*
X0208372Y0244523D01*
X0208372Y0247725D01*
X0207305Y0248793D01*
X0206237Y0248793D01*
X0205169Y0247725D01*
X0205169Y0244523D01*
X0204102Y0242348D02*
X0205169Y0241280D01*
X0205169Y0239145D01*
X0206237Y0238077D01*
X0207305Y0238077D01*
X0208372Y0239145D01*
X0208372Y0241280D01*
X0207305Y0242348D01*
X0204102Y0242348D02*
X0203034Y0242348D01*
X0201967Y0241280D01*
X0201967Y0239145D01*
X0203034Y0238077D01*
X0203034Y0235902D02*
X0208372Y0235902D01*
X0208372Y0231632D02*
X0203034Y0231632D01*
X0201967Y0232699D01*
X0201967Y0234834D01*
X0203034Y0235902D01*
X0201967Y0247725D02*
X0203034Y0248793D01*
X0204102Y0248793D01*
X0205169Y0247725D01*
X0294483Y0283435D02*
X0294483Y0287705D01*
X0294483Y0283435D02*
X0296618Y0281300D01*
X0298753Y0283435D01*
X0298753Y0287705D01*
X0300928Y0286638D02*
X0300928Y0285570D01*
X0301996Y0284503D01*
X0300928Y0283435D01*
X0300928Y0282368D01*
X0301996Y0281300D01*
X0304131Y0281300D01*
X0305198Y0282368D01*
X0307354Y0282368D02*
X0307354Y0281300D01*
X0308421Y0281300D01*
X0308421Y0282368D01*
X0307354Y0282368D01*
X0310596Y0282368D02*
X0311664Y0281300D01*
X0313799Y0281300D01*
X0314867Y0282368D01*
X0312732Y0284503D02*
X0311664Y0284503D01*
X0310596Y0283435D01*
X0310596Y0282368D01*
X0311664Y0284503D02*
X0310596Y0285570D01*
X0310596Y0286638D01*
X0311664Y0287705D01*
X0313799Y0287705D01*
X0314867Y0286638D01*
X0305198Y0286638D02*
X0304131Y0287705D01*
X0301996Y0287705D01*
X0300928Y0286638D01*
X0301996Y0284503D02*
X0303063Y0284503D01*
X0301976Y0302300D02*
X0298773Y0302300D01*
X0297705Y0303368D01*
X0297705Y0307638D01*
X0298773Y0308705D01*
X0301976Y0308705D01*
X0301976Y0302300D01*
X0304151Y0302300D02*
X0304151Y0308705D01*
X0308421Y0308705D02*
X0304151Y0302300D01*
X0308421Y0302300D02*
X0308421Y0308705D01*
X0310596Y0307638D02*
X0311664Y0308705D01*
X0313799Y0308705D01*
X0314867Y0307638D01*
X0314867Y0303368D01*
X0313799Y0302300D01*
X0311664Y0302300D01*
X0310596Y0303368D01*
X0310596Y0305503D01*
X0312732Y0305503D01*
X0311664Y0312800D02*
X0313799Y0312800D01*
X0314867Y0313868D01*
X0314867Y0316003D02*
X0312732Y0317070D01*
X0311664Y0317070D01*
X0310596Y0316003D01*
X0310596Y0313868D01*
X0311664Y0312800D01*
X0308421Y0314935D02*
X0306286Y0312800D01*
X0304151Y0314935D01*
X0304151Y0319205D01*
X0308421Y0319205D02*
X0308421Y0314935D01*
X0310596Y0319205D02*
X0314867Y0319205D01*
X0314867Y0316003D01*
X0084872Y0257527D02*
X0083805Y0258595D01*
X0079534Y0254325D01*
X0078467Y0255392D01*
X0078467Y0257527D01*
X0079534Y0258595D01*
X0083805Y0258595D01*
X0084872Y0257527D02*
X0084872Y0255392D01*
X0083805Y0254325D01*
X0079534Y0254325D01*
X0079534Y0252170D02*
X0078467Y0252170D01*
X0078467Y0251102D01*
X0079534Y0251102D01*
X0079534Y0252170D01*
X0078467Y0248927D02*
X0078467Y0244656D01*
X0078467Y0246792D02*
X0084872Y0246792D01*
X0082737Y0244656D01*
X0082737Y0242481D02*
X0078467Y0240346D01*
X0082737Y0238211D01*
X0074372Y0236056D02*
X0067967Y0236056D01*
X0067967Y0237123D02*
X0067967Y0234988D01*
X0070102Y0232813D02*
X0070102Y0228543D01*
X0071169Y0228543D02*
X0069034Y0228543D01*
X0067967Y0229610D01*
X0067967Y0231745D01*
X0070102Y0232813D02*
X0071169Y0232813D01*
X0072237Y0231745D01*
X0072237Y0229610D01*
X0071169Y0228543D01*
X0072237Y0225313D02*
X0067967Y0225313D01*
X0067967Y0224246D02*
X0067967Y0226381D01*
X0067967Y0222071D02*
X0071169Y0222071D01*
X0072237Y0221003D01*
X0072237Y0218868D01*
X0071169Y0217800D01*
X0070102Y0215625D02*
X0071169Y0214557D01*
X0071169Y0212422D01*
X0072237Y0211355D01*
X0073305Y0211355D01*
X0074372Y0212422D01*
X0074372Y0214557D01*
X0073305Y0215625D01*
X0074372Y0217800D02*
X0067967Y0217800D01*
X0069034Y0215625D02*
X0067967Y0214557D01*
X0067967Y0212422D01*
X0069034Y0211355D01*
X0071169Y0209180D02*
X0071169Y0204909D01*
X0071169Y0202734D02*
X0070102Y0202734D01*
X0070102Y0198464D01*
X0071169Y0198464D02*
X0069034Y0198464D01*
X0067967Y0199531D01*
X0067967Y0201666D01*
X0071169Y0202734D02*
X0072237Y0201666D01*
X0072237Y0199531D01*
X0071169Y0198464D01*
X0072237Y0196289D02*
X0072237Y0193086D01*
X0071169Y0192018D01*
X0069034Y0192018D01*
X0067967Y0193086D01*
X0067967Y0196289D01*
X0074372Y0196289D01*
X0078467Y0196295D02*
X0078467Y0194160D01*
X0079534Y0193092D01*
X0081669Y0193092D01*
X0082737Y0194160D01*
X0082737Y0196295D01*
X0081669Y0197363D01*
X0079534Y0197363D01*
X0078467Y0196295D01*
X0078467Y0190917D02*
X0081669Y0190917D01*
X0082737Y0189850D01*
X0082737Y0186647D01*
X0078467Y0186647D01*
X0078467Y0184485D02*
X0078467Y0182350D01*
X0078467Y0183418D02*
X0082737Y0183418D01*
X0082737Y0182350D01*
X0082737Y0180175D02*
X0078467Y0180175D01*
X0078467Y0176972D01*
X0079534Y0175904D01*
X0082737Y0175904D01*
X0082737Y0173729D02*
X0082737Y0170527D01*
X0081669Y0169459D01*
X0079534Y0169459D01*
X0078467Y0170527D01*
X0078467Y0173729D01*
X0084872Y0173729D01*
X0082737Y0167290D02*
X0082737Y0166223D01*
X0080602Y0164088D01*
X0078467Y0164088D02*
X0082737Y0164088D01*
X0082737Y0161913D02*
X0078467Y0161913D01*
X0081669Y0161913D02*
X0081669Y0157642D01*
X0082737Y0157642D02*
X0084872Y0159777D01*
X0082737Y0161913D01*
X0082737Y0157642D02*
X0078467Y0157642D01*
X0074372Y0159791D02*
X0072237Y0161926D01*
X0074372Y0164061D01*
X0067967Y0164061D01*
X0069034Y0166236D02*
X0067967Y0167304D01*
X0067967Y0169439D01*
X0069034Y0170507D01*
X0071169Y0170507D01*
X0072237Y0169439D01*
X0072237Y0167304D01*
X0071169Y0166236D01*
X0069034Y0166236D01*
X0067967Y0159791D02*
X0074372Y0159791D01*
X0071169Y0157616D02*
X0070102Y0157616D01*
X0070102Y0153345D01*
X0071169Y0153345D02*
X0069034Y0153345D01*
X0067967Y0154413D01*
X0067967Y0156548D01*
X0071169Y0157616D02*
X0072237Y0156548D01*
X0072237Y0154413D01*
X0071169Y0153345D01*
X0071169Y0151170D02*
X0067967Y0151170D01*
X0067967Y0149035D02*
X0071169Y0149035D01*
X0072237Y0150102D01*
X0071169Y0151170D01*
X0071169Y0149035D02*
X0072237Y0147967D01*
X0072237Y0146900D01*
X0067967Y0146900D01*
X0069034Y0144725D02*
X0071169Y0144725D01*
X0072237Y0143657D01*
X0072237Y0141522D01*
X0071169Y0140454D01*
X0069034Y0140454D01*
X0067967Y0141522D01*
X0067967Y0143657D01*
X0069034Y0144725D01*
X0067967Y0138279D02*
X0074372Y0138279D01*
X0071169Y0138279D02*
X0071169Y0134009D01*
X0067967Y0134009D02*
X0074372Y0134009D01*
X0074372Y0131834D02*
X0067967Y0127563D01*
X0067967Y0125395D02*
X0070102Y0122192D01*
X0072237Y0125395D01*
X0074372Y0122192D02*
X0067967Y0122192D01*
X0067967Y0120030D02*
X0067967Y0117895D01*
X0067967Y0118963D02*
X0072237Y0118963D01*
X0072237Y0117895D01*
X0074372Y0118963D02*
X0075440Y0118963D01*
X0078467Y0118963D02*
X0084872Y0118963D01*
X0084872Y0117895D01*
X0081669Y0115720D02*
X0080602Y0115720D01*
X0080602Y0111450D01*
X0081669Y0111450D02*
X0079534Y0111450D01*
X0078467Y0112517D01*
X0078467Y0114652D01*
X0078467Y0117895D02*
X0078467Y0120030D01*
X0079534Y0122192D02*
X0081669Y0122192D01*
X0082737Y0123260D01*
X0082737Y0126462D01*
X0084872Y0126462D02*
X0078467Y0126462D01*
X0078467Y0123260D01*
X0079534Y0122192D01*
X0081669Y0115720D02*
X0082737Y0114652D01*
X0082737Y0112517D01*
X0081669Y0111450D01*
X0082737Y0108220D02*
X0078467Y0108220D01*
X0078467Y0107153D02*
X0078467Y0109288D01*
X0082737Y0108220D02*
X0082737Y0107153D01*
X0084872Y0108220D02*
X0085940Y0108220D01*
X0081669Y0104977D02*
X0078467Y0104977D01*
X0081669Y0104977D02*
X0082737Y0103910D01*
X0082737Y0101775D01*
X0081669Y0100707D01*
X0080602Y0098532D02*
X0079534Y0098532D01*
X0078467Y0097464D01*
X0078467Y0095329D01*
X0079534Y0094262D01*
X0081669Y0095329D02*
X0081669Y0097464D01*
X0080602Y0098532D01*
X0078467Y0100707D02*
X0084872Y0100707D01*
X0083805Y0098532D02*
X0084872Y0097464D01*
X0084872Y0095329D01*
X0083805Y0094262D01*
X0082737Y0094262D01*
X0081669Y0095329D01*
X0074372Y0093187D02*
X0067967Y0093187D01*
X0069034Y0091012D02*
X0070102Y0089945D01*
X0070102Y0087809D01*
X0071169Y0086742D01*
X0072237Y0087809D01*
X0072237Y0091012D01*
X0071169Y0093187D02*
X0072237Y0094255D01*
X0072237Y0096390D01*
X0071169Y0097458D01*
X0067967Y0097458D01*
X0069034Y0099633D02*
X0070102Y0100700D01*
X0070102Y0103903D01*
X0071169Y0103903D02*
X0067967Y0103903D01*
X0067967Y0100700D01*
X0069034Y0099633D01*
X0072237Y0100700D02*
X0072237Y0102836D01*
X0071169Y0103903D01*
X0070102Y0106078D02*
X0072237Y0109281D01*
X0073305Y0111450D02*
X0069034Y0111450D01*
X0067967Y0112517D01*
X0067967Y0114652D01*
X0069034Y0115720D01*
X0071169Y0115720D01*
X0071169Y0113585D01*
X0073305Y0115720D02*
X0074372Y0114652D01*
X0074372Y0112517D01*
X0073305Y0111450D01*
X0074372Y0106078D02*
X0067967Y0106078D01*
X0070102Y0106078D02*
X0067967Y0109281D01*
X0069034Y0091012D02*
X0067967Y0089945D01*
X0067967Y0086742D01*
X0067967Y0084567D02*
X0067967Y0081364D01*
X0069034Y0080296D01*
X0070102Y0081364D01*
X0070102Y0084567D01*
X0071169Y0084567D02*
X0067967Y0084567D01*
X0071169Y0084567D02*
X0072237Y0083499D01*
X0072237Y0081364D01*
X0071169Y0078121D02*
X0071169Y0073851D01*
X0067967Y0073851D02*
X0074372Y0073851D01*
X0074372Y0071676D02*
X0067967Y0067405D01*
X0067967Y0065230D02*
X0071169Y0065230D01*
X0072237Y0064163D01*
X0071169Y0063095D01*
X0067967Y0063095D01*
X0067967Y0060960D02*
X0072237Y0060960D01*
X0072237Y0062027D01*
X0071169Y0063095D01*
X0071169Y0058785D02*
X0069034Y0058785D01*
X0067967Y0057717D01*
X0067967Y0055582D01*
X0069034Y0054514D01*
X0071169Y0054514D01*
X0072237Y0055582D01*
X0072237Y0057717D01*
X0071169Y0058785D01*
X0072237Y0052339D02*
X0072237Y0049136D01*
X0071169Y0048069D01*
X0069034Y0048069D01*
X0067967Y0049136D01*
X0067967Y0052339D01*
X0067967Y0045914D02*
X0067967Y0044846D01*
X0069034Y0044846D01*
X0069034Y0045914D01*
X0067967Y0045914D01*
X0069034Y0042671D02*
X0071169Y0042671D01*
X0072237Y0041603D01*
X0072237Y0038401D01*
X0074372Y0038401D02*
X0067967Y0038401D01*
X0067967Y0041603D01*
X0069034Y0042671D01*
X0067967Y0036225D02*
X0072237Y0036225D01*
X0072237Y0031955D02*
X0069034Y0031955D01*
X0067967Y0033023D01*
X0067967Y0036225D01*
X0067967Y0029780D02*
X0071169Y0029780D01*
X0072237Y0028712D01*
X0072237Y0026577D01*
X0071169Y0025510D01*
X0072237Y0023348D02*
X0072237Y0021213D01*
X0073305Y0022280D02*
X0069034Y0022280D01*
X0067967Y0023348D01*
X0067967Y0025510D02*
X0074372Y0025510D01*
X0078467Y0025496D02*
X0081669Y0025496D01*
X0082737Y0026564D01*
X0081669Y0027631D01*
X0078467Y0027631D01*
X0079534Y0029807D02*
X0081669Y0029807D01*
X0082737Y0030874D01*
X0082737Y0033009D01*
X0081669Y0034077D01*
X0080602Y0034077D01*
X0080602Y0029807D01*
X0079534Y0029807D02*
X0078467Y0030874D01*
X0078467Y0033009D01*
X0078467Y0036252D02*
X0084872Y0036252D01*
X0082737Y0038387D01*
X0084872Y0040522D01*
X0078467Y0040522D01*
X0079534Y0042698D02*
X0078467Y0043765D01*
X0078467Y0045900D01*
X0079534Y0046968D01*
X0081669Y0046968D01*
X0082737Y0045900D01*
X0082737Y0043765D01*
X0081669Y0042698D01*
X0079534Y0042698D01*
X0078467Y0049143D02*
X0082737Y0049143D01*
X0082737Y0052346D01*
X0081669Y0053413D01*
X0078467Y0053413D01*
X0078467Y0062034D02*
X0084872Y0062034D01*
X0078467Y0066304D01*
X0084872Y0066304D01*
X0081669Y0068480D02*
X0082737Y0069547D01*
X0082737Y0071682D01*
X0081669Y0072750D01*
X0079534Y0072750D01*
X0078467Y0071682D01*
X0078467Y0069547D01*
X0079534Y0068480D01*
X0081669Y0068480D01*
X0081669Y0074925D02*
X0079534Y0074925D01*
X0078467Y0075993D01*
X0078467Y0079195D01*
X0084872Y0079195D01*
X0082737Y0079195D02*
X0082737Y0075993D01*
X0081669Y0074925D01*
X0081669Y0081371D02*
X0079534Y0081371D01*
X0078467Y0082438D01*
X0078467Y0084573D01*
X0080602Y0085641D02*
X0080602Y0081371D01*
X0081669Y0081371D02*
X0082737Y0082438D01*
X0082737Y0084573D01*
X0081669Y0085641D01*
X0080602Y0085641D01*
X0074372Y0078121D02*
X0067967Y0078121D01*
X0081669Y0025496D02*
X0082737Y0024429D01*
X0082737Y0023361D01*
X0078467Y0023361D01*
X0079534Y0021186D02*
X0081669Y0021186D01*
X0082737Y0020118D01*
X0082737Y0017983D01*
X0081669Y0016916D01*
X0079534Y0016916D01*
X0078467Y0017983D01*
X0078467Y0020118D01*
X0079534Y0021186D01*
X0075440Y0017983D02*
X0074372Y0017983D01*
X0072237Y0017983D02*
X0067967Y0017983D01*
X0067967Y0016916D02*
X0067967Y0019051D01*
X0067967Y0014740D02*
X0067967Y0011538D01*
X0069034Y0010470D01*
X0071169Y0010470D01*
X0072237Y0011538D01*
X0072237Y0014740D01*
X0066899Y0014740D01*
X0065832Y0013673D01*
X0065832Y0012605D01*
X0072237Y0016916D02*
X0072237Y0017983D01*
X0078467Y0014740D02*
X0084872Y0014740D01*
X0081669Y0014740D02*
X0081669Y0010470D01*
X0078467Y0010470D02*
X0084872Y0010470D01*
X0081669Y0135083D02*
X0081669Y0137218D01*
X0081669Y0139380D02*
X0079534Y0139380D01*
X0078467Y0140448D01*
X0078467Y0142583D01*
X0079534Y0143650D01*
X0081669Y0143650D01*
X0082737Y0142583D01*
X0082737Y0140448D01*
X0081669Y0139380D01*
X0084872Y0137218D02*
X0083805Y0136151D01*
X0078467Y0136151D01*
X0078467Y0145826D02*
X0082737Y0145826D01*
X0082737Y0147961D02*
X0082737Y0149028D01*
X0082737Y0147961D02*
X0080602Y0145826D01*
X0072237Y0172682D02*
X0067967Y0172682D01*
X0072237Y0172682D02*
X0072237Y0175884D01*
X0071169Y0176952D01*
X0067967Y0176952D01*
X0067967Y0179127D02*
X0074372Y0179127D01*
X0067967Y0183398D01*
X0074372Y0183398D01*
X0071169Y0185573D02*
X0069034Y0185573D01*
X0067967Y0186640D01*
X0067967Y0188775D01*
X0069034Y0189843D01*
X0071169Y0189843D01*
X0072237Y0188775D01*
X0072237Y0186640D01*
X0071169Y0185573D01*
X0084872Y0183418D02*
X0085940Y0183418D01*
X0084872Y0205983D02*
X0078467Y0205983D01*
X0078467Y0210254D02*
X0084872Y0210254D01*
X0082737Y0213497D02*
X0082737Y0215632D01*
X0081669Y0216699D01*
X0078467Y0216699D01*
X0078467Y0213497D01*
X0079534Y0212429D01*
X0080602Y0213497D01*
X0080602Y0216699D01*
X0078467Y0218874D02*
X0082737Y0218874D01*
X0082737Y0222077D01*
X0081669Y0223145D01*
X0078467Y0223145D01*
X0079534Y0225320D02*
X0078467Y0226388D01*
X0078467Y0228523D01*
X0079534Y0229590D01*
X0081669Y0229590D01*
X0082737Y0228523D01*
X0082737Y0226388D01*
X0081669Y0225320D01*
X0079534Y0225320D01*
X0075440Y0225313D02*
X0074372Y0225313D01*
X0072237Y0225313D02*
X0072237Y0224246D01*
X0070102Y0215625D02*
X0069034Y0215625D01*
X0078467Y0210254D02*
X0084872Y0205983D01*
X0074372Y0234988D02*
X0074372Y0236056D01*
X0071169Y0239285D02*
X0072237Y0240353D01*
X0072237Y0243556D01*
X0074372Y0243556D02*
X0067967Y0243556D01*
X0067967Y0240353D01*
X0069034Y0239285D01*
X0071169Y0239285D01*
X0071169Y0245731D02*
X0071169Y0250001D01*
X0071169Y0252176D02*
X0071169Y0256447D01*
X0072237Y0256447D02*
X0067967Y0256447D01*
X0067967Y0258622D02*
X0072237Y0258622D01*
X0072237Y0260757D02*
X0072237Y0261824D01*
X0072237Y0260757D02*
X0070102Y0258622D01*
X0072237Y0256447D02*
X0074372Y0254311D01*
X0072237Y0252176D01*
X0067967Y0252176D01*
X0069034Y0263993D02*
X0071169Y0263993D01*
X0072237Y0265061D01*
X0072237Y0268263D01*
X0074372Y0268263D02*
X0067967Y0268263D01*
X0067967Y0265061D01*
X0069034Y0263993D01*
X0069034Y0270438D02*
X0067967Y0271506D01*
X0067967Y0274709D01*
X0072237Y0274709D01*
X0072237Y0276884D02*
X0072237Y0277952D01*
X0067967Y0277952D01*
X0067967Y0279019D02*
X0067967Y0276884D01*
X0067967Y0281181D02*
X0072237Y0281181D01*
X0072237Y0284384D01*
X0071169Y0285451D01*
X0067967Y0285451D01*
X0069034Y0287626D02*
X0067967Y0288694D01*
X0067967Y0290829D01*
X0069034Y0291897D01*
X0071169Y0291897D01*
X0072237Y0290829D01*
X0072237Y0288694D01*
X0071169Y0287626D01*
X0069034Y0287626D01*
X0071169Y0294072D02*
X0071169Y0298342D01*
X0067967Y0300517D02*
X0074372Y0300517D01*
X0067967Y0304788D01*
X0074372Y0304788D01*
X0072237Y0308030D02*
X0072237Y0310166D01*
X0071169Y0311233D01*
X0067967Y0311233D01*
X0067967Y0308030D01*
X0069034Y0306963D01*
X0070102Y0308030D01*
X0070102Y0311233D01*
X0067967Y0313408D02*
X0072237Y0313408D01*
X0072237Y0316611D01*
X0071169Y0317679D01*
X0067967Y0317679D01*
X0069034Y0319854D02*
X0067967Y0320921D01*
X0067967Y0323057D01*
X0069034Y0324124D01*
X0071169Y0324124D01*
X0072237Y0323057D01*
X0072237Y0320921D01*
X0071169Y0319854D01*
X0069034Y0319854D01*
X0074372Y0277952D02*
X0075440Y0277952D01*
X0072237Y0270438D02*
X0069034Y0270438D01*
D12*
X0170167Y0256000D02*
X0170167Y0243500D01*
X0172667Y0246000D01*
X0177667Y0246000D01*
X0180167Y0243500D01*
X0180167Y0238500D01*
X0177667Y0236000D01*
X0180167Y0233500D01*
X0180167Y0228500D01*
X0177667Y0226000D01*
X0180167Y0223500D01*
X0180167Y0218500D01*
X0177667Y0216000D01*
X0180167Y0213500D01*
X0180167Y0208500D01*
X0177667Y0206000D01*
X0180167Y0203500D01*
X0180167Y0198500D01*
X0177667Y0196000D01*
X0180167Y0193500D01*
X0180167Y0188500D01*
X0177667Y0186000D01*
X0180167Y0183500D01*
X0180167Y0178500D01*
X0177667Y0176000D01*
X0180167Y0173500D01*
X0180167Y0168500D01*
X0177667Y0166000D01*
X0180167Y0163500D01*
X0180167Y0158500D01*
X0177667Y0156000D01*
X0180167Y0153500D01*
X0180167Y0148500D01*
X0177667Y0146000D01*
X0180167Y0143500D01*
X0180167Y0138500D01*
X0177667Y0136000D01*
X0180167Y0133500D01*
X0180167Y0128500D01*
X0177667Y0126000D01*
X0180167Y0123500D01*
X0180167Y0118500D01*
X0177667Y0116000D01*
X0180167Y0113500D01*
X0180167Y0108500D01*
X0177667Y0106000D01*
X0180167Y0103500D01*
X0180167Y0098500D01*
X0177667Y0096000D01*
X0172667Y0096000D01*
X0170167Y0098500D01*
X0170167Y0103500D02*
X0172667Y0106000D01*
X0170167Y0108500D01*
X0170167Y0123500D01*
X0172667Y0126000D01*
X0170167Y0128500D01*
X0170167Y0123500D02*
X0170167Y0188500D01*
X0170167Y0218500D01*
X0172667Y0216000D01*
X0170167Y0213500D01*
X0170167Y0208500D02*
X0172667Y0206000D01*
X0170167Y0203500D01*
X0170167Y0198500D02*
X0172667Y0196000D01*
X0170167Y0193500D01*
X0170167Y0188500D02*
X0172667Y0186000D01*
X0170167Y0183500D01*
X0170167Y0178500D02*
X0172667Y0176000D01*
X0170167Y0173500D01*
X0170167Y0168500D02*
X0172667Y0166000D01*
X0170167Y0163500D01*
X0170167Y0158500D02*
X0172667Y0156000D01*
X0170167Y0153500D01*
X0170167Y0148500D02*
X0172667Y0146000D01*
X0170167Y0143500D01*
X0170167Y0138500D02*
X0172667Y0136000D01*
X0170167Y0133500D01*
X0170167Y0118500D02*
X0172667Y0116000D01*
X0170167Y0113500D01*
X0170167Y0108500D02*
X0170167Y0086000D01*
X0192667Y0086000D01*
X0217667Y0086000D01*
X0240167Y0086000D01*
X0240167Y0103500D01*
X0237667Y0106000D01*
X0240167Y0108500D01*
X0240167Y0103500D01*
X0240167Y0108500D02*
X0240167Y0113500D01*
X0237667Y0116000D01*
X0240167Y0118500D01*
X0240167Y0113500D01*
X0240167Y0118500D02*
X0240167Y0123500D01*
X0237667Y0126000D01*
X0240167Y0128500D01*
X0240167Y0123500D01*
X0240167Y0128500D02*
X0240167Y0133500D01*
X0237667Y0136000D01*
X0240167Y0138500D01*
X0240167Y0133500D01*
X0240167Y0138500D02*
X0240167Y0143500D01*
X0237667Y0146000D01*
X0240167Y0148500D01*
X0240167Y0143500D01*
X0240167Y0148500D02*
X0240167Y0153500D01*
X0237667Y0156000D01*
X0240167Y0158500D01*
X0240167Y0153500D01*
X0240167Y0158500D02*
X0240167Y0163500D01*
X0237667Y0166000D01*
X0240167Y0168500D01*
X0240167Y0163500D01*
X0240167Y0168500D02*
X0240167Y0173500D01*
X0237667Y0176000D01*
X0240167Y0178500D01*
X0240167Y0173500D01*
X0240167Y0178500D02*
X0240167Y0183500D01*
X0237667Y0186000D01*
X0240167Y0188500D01*
X0240167Y0183500D01*
X0240167Y0188500D02*
X0240167Y0193500D01*
X0237667Y0196000D01*
X0240167Y0198500D01*
X0240167Y0193500D01*
X0240167Y0198500D02*
X0240167Y0203500D01*
X0237667Y0206000D01*
X0240167Y0208500D01*
X0240167Y0218500D01*
X0237667Y0216000D01*
X0240167Y0213500D01*
X0240167Y0208500D02*
X0240167Y0203500D01*
X0232667Y0206000D02*
X0230167Y0203500D01*
X0230167Y0198500D01*
X0232667Y0196000D01*
X0230167Y0193500D01*
X0230167Y0188500D01*
X0232667Y0186000D01*
X0230167Y0183500D01*
X0230167Y0178500D01*
X0232667Y0176000D01*
X0230167Y0173500D01*
X0230167Y0168500D01*
X0232667Y0166000D01*
X0230167Y0163500D01*
X0230167Y0158500D01*
X0232667Y0156000D01*
X0230167Y0153500D01*
X0230167Y0148500D01*
X0232667Y0146000D01*
X0230167Y0143500D01*
X0230167Y0138500D01*
X0232667Y0136000D01*
X0230167Y0133500D01*
X0230167Y0128500D01*
X0232667Y0126000D01*
X0230167Y0123500D01*
X0230167Y0118500D01*
X0232667Y0116000D01*
X0230167Y0113500D01*
X0230167Y0108500D01*
X0232667Y0106000D01*
X0230167Y0103500D01*
X0230167Y0098500D01*
X0232667Y0096000D01*
X0237667Y0096000D01*
X0240167Y0098500D01*
X0215167Y0156000D02*
X0200167Y0156000D01*
X0200167Y0166000D01*
X0215167Y0166000D01*
X0215167Y0156000D01*
X0204667Y0161000D02*
X0204669Y0161109D01*
X0204675Y0161218D01*
X0204685Y0161326D01*
X0204699Y0161434D01*
X0204716Y0161542D01*
X0204738Y0161649D01*
X0204763Y0161755D01*
X0204793Y0161859D01*
X0204826Y0161963D01*
X0204863Y0162066D01*
X0204903Y0162167D01*
X0204947Y0162266D01*
X0204995Y0162364D01*
X0205047Y0162461D01*
X0205101Y0162555D01*
X0205159Y0162647D01*
X0205221Y0162737D01*
X0205286Y0162824D01*
X0205353Y0162910D01*
X0205424Y0162993D01*
X0205498Y0163073D01*
X0205575Y0163150D01*
X0205654Y0163225D01*
X0205736Y0163296D01*
X0205821Y0163365D01*
X0205908Y0163430D01*
X0205997Y0163493D01*
X0206089Y0163551D01*
X0206183Y0163607D01*
X0206278Y0163659D01*
X0206376Y0163708D01*
X0206475Y0163753D01*
X0206576Y0163795D01*
X0206678Y0163832D01*
X0206781Y0163866D01*
X0206886Y0163897D01*
X0206992Y0163923D01*
X0207098Y0163946D01*
X0207206Y0163964D01*
X0207314Y0163979D01*
X0207422Y0163990D01*
X0207531Y0163997D01*
X0207640Y0164000D01*
X0207749Y0163999D01*
X0207858Y0163994D01*
X0207966Y0163985D01*
X0208074Y0163972D01*
X0208182Y0163955D01*
X0208289Y0163935D01*
X0208395Y0163910D01*
X0208500Y0163882D01*
X0208604Y0163850D01*
X0208707Y0163814D01*
X0208809Y0163774D01*
X0208909Y0163731D01*
X0209007Y0163684D01*
X0209104Y0163634D01*
X0209198Y0163580D01*
X0209291Y0163522D01*
X0209382Y0163462D01*
X0209470Y0163398D01*
X0209556Y0163331D01*
X0209639Y0163261D01*
X0209720Y0163188D01*
X0209798Y0163112D01*
X0209873Y0163033D01*
X0209946Y0162951D01*
X0210015Y0162867D01*
X0210081Y0162781D01*
X0210144Y0162692D01*
X0210204Y0162601D01*
X0210261Y0162508D01*
X0210314Y0162413D01*
X0210363Y0162316D01*
X0210409Y0162217D01*
X0210451Y0162117D01*
X0210490Y0162015D01*
X0210525Y0161911D01*
X0210556Y0161807D01*
X0210584Y0161702D01*
X0210607Y0161595D01*
X0210627Y0161488D01*
X0210643Y0161380D01*
X0210655Y0161272D01*
X0210663Y0161163D01*
X0210667Y0161054D01*
X0210667Y0160946D01*
X0210663Y0160837D01*
X0210655Y0160728D01*
X0210643Y0160620D01*
X0210627Y0160512D01*
X0210607Y0160405D01*
X0210584Y0160298D01*
X0210556Y0160193D01*
X0210525Y0160089D01*
X0210490Y0159985D01*
X0210451Y0159883D01*
X0210409Y0159783D01*
X0210363Y0159684D01*
X0210314Y0159587D01*
X0210261Y0159492D01*
X0210204Y0159399D01*
X0210144Y0159308D01*
X0210081Y0159219D01*
X0210015Y0159133D01*
X0209946Y0159049D01*
X0209873Y0158967D01*
X0209798Y0158888D01*
X0209720Y0158812D01*
X0209639Y0158739D01*
X0209556Y0158669D01*
X0209470Y0158602D01*
X0209382Y0158538D01*
X0209291Y0158478D01*
X0209198Y0158420D01*
X0209104Y0158366D01*
X0209007Y0158316D01*
X0208909Y0158269D01*
X0208809Y0158226D01*
X0208707Y0158186D01*
X0208604Y0158150D01*
X0208500Y0158118D01*
X0208395Y0158090D01*
X0208289Y0158065D01*
X0208182Y0158045D01*
X0208074Y0158028D01*
X0207966Y0158015D01*
X0207858Y0158006D01*
X0207749Y0158001D01*
X0207640Y0158000D01*
X0207531Y0158003D01*
X0207422Y0158010D01*
X0207314Y0158021D01*
X0207206Y0158036D01*
X0207098Y0158054D01*
X0206992Y0158077D01*
X0206886Y0158103D01*
X0206781Y0158134D01*
X0206678Y0158168D01*
X0206576Y0158205D01*
X0206475Y0158247D01*
X0206376Y0158292D01*
X0206278Y0158341D01*
X0206183Y0158393D01*
X0206089Y0158449D01*
X0205997Y0158507D01*
X0205908Y0158570D01*
X0205821Y0158635D01*
X0205736Y0158704D01*
X0205654Y0158775D01*
X0205575Y0158850D01*
X0205498Y0158927D01*
X0205424Y0159007D01*
X0205353Y0159090D01*
X0205286Y0159176D01*
X0205221Y0159263D01*
X0205159Y0159353D01*
X0205101Y0159445D01*
X0205047Y0159539D01*
X0204995Y0159636D01*
X0204947Y0159734D01*
X0204903Y0159833D01*
X0204863Y0159934D01*
X0204826Y0160037D01*
X0204793Y0160141D01*
X0204763Y0160245D01*
X0204738Y0160351D01*
X0204716Y0160458D01*
X0204699Y0160566D01*
X0204685Y0160674D01*
X0204675Y0160782D01*
X0204669Y0160891D01*
X0204667Y0161000D01*
X0232667Y0206000D02*
X0230167Y0208500D01*
X0230167Y0213500D01*
X0232667Y0216000D01*
X0230167Y0218500D01*
X0230167Y0223500D01*
X0232667Y0226000D01*
X0230167Y0228500D01*
X0230167Y0233500D01*
X0232667Y0236000D01*
X0230167Y0238500D01*
X0230167Y0243500D01*
X0232667Y0246000D01*
X0237667Y0246000D01*
X0240167Y0243500D01*
X0240167Y0238500D01*
X0237667Y0236000D01*
X0240167Y0233500D01*
X0240167Y0228500D01*
X0237667Y0226000D01*
X0240167Y0223500D01*
X0240167Y0218500D01*
X0240167Y0223500D02*
X0240167Y0228500D01*
X0240167Y0233500D02*
X0240167Y0238500D01*
X0240167Y0243500D02*
X0240167Y0256000D01*
X0217667Y0256000D01*
X0217667Y0261000D01*
X0192667Y0261000D01*
X0192667Y0256000D01*
X0192667Y0226000D01*
X0217667Y0226000D01*
X0217667Y0256000D01*
X0192667Y0256000D02*
X0170167Y0256000D01*
X0170167Y0243500D02*
X0170167Y0238500D01*
X0172667Y0236000D01*
X0170167Y0233500D01*
X0170167Y0238500D01*
X0170167Y0233500D02*
X0170167Y0228500D01*
X0172667Y0226000D01*
X0170167Y0223500D01*
X0170167Y0228500D01*
X0170167Y0223500D02*
X0170167Y0218500D01*
D13*
X0160367Y0174269D02*
X0160367Y0171200D01*
X0160367Y0172735D02*
X0164971Y0172735D01*
X0163436Y0171200D01*
X0164971Y0169665D02*
X0163436Y0168131D01*
X0164971Y0166596D01*
X0160367Y0166596D01*
X0160367Y0169665D02*
X0164971Y0169665D01*
D14*
X0199523Y0152853D02*
X0201992Y0152853D01*
X0203206Y0152853D02*
X0205675Y0152853D01*
X0205675Y0149150D01*
X0203206Y0149150D01*
X0204441Y0151002D02*
X0205675Y0151002D01*
X0206889Y0150384D02*
X0206889Y0149767D01*
X0207507Y0149150D01*
X0208741Y0149150D01*
X0209358Y0149767D01*
X0210573Y0149150D02*
X0213041Y0149150D01*
X0213041Y0152853D01*
X0210573Y0152853D01*
X0209358Y0152236D02*
X0209358Y0151619D01*
X0208741Y0151002D01*
X0207507Y0151002D01*
X0206889Y0150384D01*
X0206889Y0152236D02*
X0207507Y0152853D01*
X0208741Y0152853D01*
X0209358Y0152236D01*
X0211807Y0151002D02*
X0213041Y0151002D01*
X0214256Y0151002D02*
X0214873Y0150384D01*
X0216725Y0150384D01*
X0216725Y0149150D02*
X0216725Y0152853D01*
X0214873Y0152853D01*
X0214256Y0152236D01*
X0214256Y0151002D01*
X0215490Y0150384D02*
X0214256Y0149150D01*
X0200758Y0149150D02*
X0200758Y0152853D01*
M02*
