%
M48
M71
T01C0.600
T02C0.813
T03C1.000
T04C1.016
T05C1.118
T06C1.321
T07C1.651
%
T01
X66082Y63754
T02
X38142Y48514
X35602Y48514
X30522Y48514
X30522Y40894
X35602Y40894
X38142Y40894
X52112Y15494
X50207Y14224
X52112Y12954
X52112Y7874
X50207Y6604
X52112Y5334
T03
X38777Y23114
X38777Y25654
X38777Y28194
X38777Y30734
X38777Y33274
X38777Y35814
X44492Y35814
X44492Y33274
X44492Y30734
X44492Y28194
X44492Y25654
X44492Y38354
X44492Y40894
X44492Y43434
X44492Y45974
X44492Y48514
X44492Y51054
X44492Y53594
X44492Y56134
X44492Y58674
X44492Y61214
X39412Y61214
X36872Y61214
X36872Y58674
X36872Y56134
X36872Y53594
X39412Y53594
X39412Y56134
X39412Y58674
X59732Y58674
X59732Y56134
X59732Y53594
X59732Y51054
X59732Y48514
X59732Y45974
X59732Y43434
X59732Y40894
X59732Y38354
X59732Y35814
X59732Y33274
X59732Y30734
X59732Y28194
X59732Y25654
X59732Y61214
T04
X69892Y61214
X69892Y58674
X69892Y56134
X69892Y53594
X69892Y51054
X69892Y48514
X72432Y48514
X72432Y51054
X72432Y53594
X72432Y56134
X72432Y58674
X72432Y61214
X72432Y72644
X69892Y72644
X67352Y72644
X64812Y72644
X62272Y72644
X59732Y72644
X57192Y72644
X54652Y72644
X52112Y72644
X49572Y72644
X47032Y72644
X44492Y72644
X41952Y72644
X39412Y72644
X36872Y72644
X36872Y77724
X36872Y80264
X39412Y80264
X39412Y77724
X41952Y77724
X41952Y80264
X44492Y80264
X44492Y77724
X47032Y77724
X47032Y80264
X49572Y80264
X49572Y77724
X52112Y77724
X52112Y80264
X54652Y80264
X57192Y80264
X57192Y77724
X54652Y77724
X59732Y77724
X59732Y80264
X62272Y80264
X62272Y77724
X64812Y77724
X64812Y80264
X67352Y80264
X67352Y77724
X69892Y77724
X69892Y80264
X72432Y80264
X72432Y77724
T05
X55922Y14224
X47032Y14224
X47032Y4064
X55922Y4064
T06
X28363Y4445
X28363Y16383
X40555Y16383
X42587Y10414
X40555Y4445
X49572Y25654
X54652Y25654
X52112Y35814
X67352Y38405
X67352Y43409
X67352Y31979
X67352Y26975
X65193Y16383
X65193Y4445
X77385Y4445
X79417Y10414
X77385Y16383
T07
X59732Y23114
X44492Y23114
X44492Y63754
X59732Y63754
M30
