%
M48
M72
T01C0.02362
T02C0.03189
T03C0.03937
T04C0.04016
T05C0.04409
T06C0.05197
T07C0.06496
%
T01
X260167Y251000
X235167Y261000
X180167Y261000
T02
X150167Y191000
X140167Y191000
X120167Y191000
X120167Y161000
X140167Y161000
X150167Y161000
X205167Y61000
X197667Y56000
X205167Y51000
X205167Y31000
X197667Y26000
X205167Y21000
T03
X152667Y91000
X152667Y101000
X152667Y111000
X152667Y121000
X152667Y131000
X152667Y141000
X175167Y141000
X175167Y131000
X175167Y121000
X175167Y111000
X175167Y101000
X175167Y151000
X175167Y161000
X175167Y171000
X175167Y181000
X175167Y191000
X175167Y201000
X175167Y211000
X175167Y221000
X175167Y231000
X175167Y241000
X155167Y241000
X155167Y231000
X155167Y221000
X155167Y211000
X145167Y211000
X145167Y221000
X145167Y231000
X145167Y241000
X235167Y241000
X235167Y231000
X235167Y221000
X235167Y211000
X235167Y201000
X235167Y191000
X235167Y181000
X235167Y171000
X235167Y161000
X235167Y151000
X235167Y141000
X235167Y131000
X235167Y121000
X235167Y111000
X235167Y101000
T04
X275167Y191000
X285167Y191000
X285167Y201000
X285167Y211000
X285167Y221000
X285167Y231000
X285167Y241000
X275167Y241000
X275167Y231000
X275167Y221000
X275167Y211000
X275167Y201000
X275167Y286000
X285167Y286000
X285167Y306000
X285167Y316000
X275167Y316000
X275167Y306000
X265167Y306000
X265167Y316000
X255167Y316000
X255167Y306000
X245167Y306000
X245167Y316000
X235167Y316000
X235167Y306000
X225167Y306000
X215167Y306000
X215167Y316000
X225167Y316000
X205167Y316000
X205167Y306000
X195167Y306000
X195167Y316000
X185167Y316000
X185167Y306000
X175167Y306000
X175167Y316000
X165167Y316000
X165167Y306000
X155167Y306000
X155167Y316000
X145167Y316000
X145167Y306000
X145167Y286000
X155167Y286000
X165167Y286000
X175167Y286000
X185167Y286000
X195167Y286000
X205167Y286000
X215167Y286000
X225167Y286000
X235167Y286000
X245167Y286000
X255167Y286000
X265167Y286000
T05
X220167Y56000
X185167Y56000
X185167Y16000
X220167Y16000
T06
X111667Y17500
X111667Y64500
X159667Y64500
X167667Y41000
X159667Y17500
X195167Y101000
X215167Y101000
X205167Y141000
X265167Y151200
X265167Y170900
X265167Y125900
X265167Y106200
X256667Y64500
X256667Y17500
X304667Y17500
X312667Y41000
X304667Y64500
T07
X235167Y91000
X175167Y91000
X175167Y251000
X235167Y251000
M30
